<mxfile host="app.diagrams.net" agent="Mozilla/5.0 (Windows NT 10.0; Win64; x64) AppleWebKit/537.36 (KHTML, like Gecko) Chrome/139.0.0.0 Safari/537.36" version="28.1.0">
  <diagram name="Page-1" id="Sj13WbPBMK65tN0THawu">
    <mxGraphModel dx="1097" dy="555" grid="1" gridSize="10" guides="1" tooltips="1" connect="1" arrows="1" fold="1" page="1" pageScale="1" pageWidth="850" pageHeight="1100" math="0" shadow="0">
      <root>
        <mxCell id="0" />
        <mxCell id="1" parent="0" />
        <mxCell id="cZb6ekqzZEfhUIW6tX4D-1" value="" style="aspect=fixed;sketch=0;html=1;dashed=0;whitespace=wrap;verticalLabelPosition=bottom;verticalAlign=top;fillColor=#2875E2;strokeColor=#ffffff;points=[[0.005,0.63,0],[0.1,0.2,0],[0.9,0.2,0],[0.5,0,0],[0.995,0.63,0],[0.72,0.99,0],[0.5,1,0],[0.28,0.99,0]];shape=mxgraph.kubernetes.icon2;kubernetesLabel=1;prIcon=api" vertex="1" parent="1">
          <mxGeometry x="160" y="210" width="50" height="48" as="geometry" />
        </mxCell>
        <mxCell id="cZb6ekqzZEfhUIW6tX4D-10" style="edgeStyle=orthogonalEdgeStyle;rounded=0;orthogonalLoop=1;jettySize=auto;html=1;exitX=1;exitY=0.5;exitDx=0;exitDy=0;" edge="1" parent="1" source="cZb6ekqzZEfhUIW6tX4D-2" target="cZb6ekqzZEfhUIW6tX4D-6">
          <mxGeometry relative="1" as="geometry" />
        </mxCell>
        <mxCell id="cZb6ekqzZEfhUIW6tX4D-2" value="" style="rounded=1;whiteSpace=wrap;html=1;fillColor=none;" vertex="1" parent="1">
          <mxGeometry x="125" y="204" width="120" height="60" as="geometry" />
        </mxCell>
        <mxCell id="cZb6ekqzZEfhUIW6tX4D-3" value="" style="image;aspect=fixed;html=1;points=[];align=center;fontSize=12;image=img/lib/azure2/databases/Azure_Database_PostgreSQL_Server.svg;" vertex="1" parent="1">
          <mxGeometry x="500" y="201" width="48" height="64" as="geometry" />
        </mxCell>
        <mxCell id="cZb6ekqzZEfhUIW6tX4D-5" value="" style="rounded=1;whiteSpace=wrap;html=1;fillColor=none;" vertex="1" parent="1">
          <mxGeometry x="464" y="189" width="120" height="90" as="geometry" />
        </mxCell>
        <mxCell id="cZb6ekqzZEfhUIW6tX4D-11" style="edgeStyle=orthogonalEdgeStyle;rounded=0;orthogonalLoop=1;jettySize=auto;html=1;exitX=1;exitY=0.5;exitDx=0;exitDy=0;entryX=0;entryY=0.5;entryDx=0;entryDy=0;" edge="1" parent="1" source="cZb6ekqzZEfhUIW6tX4D-6" target="cZb6ekqzZEfhUIW6tX4D-5">
          <mxGeometry relative="1" as="geometry" />
        </mxCell>
        <mxCell id="cZb6ekqzZEfhUIW6tX4D-6" value="" style="shape=image;html=1;verticalAlign=top;verticalLabelPosition=bottom;labelBackgroundColor=#ffffff;imageAspect=0;aspect=fixed;image=https://icons.diagrams.net/icon-cache1/Long_shadow_web_icons-2008/python-943.svg" vertex="1" parent="1">
          <mxGeometry x="310" y="193" width="82" height="82" as="geometry" />
        </mxCell>
        <mxCell id="cZb6ekqzZEfhUIW6tX4D-7" value="Extract" style="text;html=1;align=center;verticalAlign=middle;resizable=0;points=[];autosize=1;strokeColor=none;fillColor=none;" vertex="1" parent="1">
          <mxGeometry x="155" y="290" width="60" height="30" as="geometry" />
        </mxCell>
        <mxCell id="cZb6ekqzZEfhUIW6tX4D-8" value="Transform" style="text;html=1;align=center;verticalAlign=middle;resizable=0;points=[];autosize=1;strokeColor=none;fillColor=none;" vertex="1" parent="1">
          <mxGeometry x="311" y="290" width="80" height="30" as="geometry" />
        </mxCell>
        <mxCell id="cZb6ekqzZEfhUIW6tX4D-9" value="Load" style="text;html=1;align=center;verticalAlign=middle;resizable=0;points=[];autosize=1;strokeColor=none;fillColor=none;" vertex="1" parent="1">
          <mxGeometry x="499" y="290" width="50" height="30" as="geometry" />
        </mxCell>
        <mxCell id="cZb6ekqzZEfhUIW6tX4D-12" value="" style="rounded=1;whiteSpace=wrap;html=1;fillColor=none;" vertex="1" parent="1">
          <mxGeometry x="98.5" y="170" width="505" height="230" as="geometry" />
        </mxCell>
        <mxCell id="cZb6ekqzZEfhUIW6tX4D-14" value="" style="shape=image;verticalLabelPosition=bottom;labelBackgroundColor=default;verticalAlign=top;aspect=fixed;imageAspect=0;editableCssRules=.*;image=data:image/svg+xml,PHN2ZyB4bWxuczp4bGluaz0iaHR0cDovL3d3dy53My5vcmcvMTk5OS94bGluayIgeG1sbnM9Imh0dHA6Ly93d3cudzMub3JnLzIwMDAvc3ZnIiBzdHlsZT0iY29sb3I6IHJnYigwLCAwLCAwKTsgZm9udC1zaXplOiBtZWRpdW07IGZvbnQtc3R5bGU6IG5vcm1hbDsgZm9udC12YXJpYW50LWxpZ2F0dXJlczogbm9ybWFsOyBmb250LXZhcmlhbnQtY2Fwczogbm9ybWFsOyBmb250LXdlaWdodDogNDAwOyBsZXR0ZXItc3BhY2luZzogbm9ybWFsOyBvcnBoYW5zOiAyOyB0ZXh0LWFsaWduOiBzdGFydDsgdGV4dC1pbmRlbnQ6IDBweDsgdGV4dC10cmFuc2Zvcm06IG5vbmU7IHdpZG93czogMjsgd29yZC1zcGFjaW5nOiAwcHg7IC13ZWJraXQtdGV4dC1zdHJva2Utd2lkdGg6IDBweDsgd2hpdGUtc3BhY2U6IG5vcm1hbDsgdGV4dC1kZWNvcmF0aW9uLXRoaWNrbmVzczogaW5pdGlhbDsgdGV4dC1kZWNvcmF0aW9uLXN0eWxlOiBpbml0aWFsOyB0ZXh0LWRlY29yYXRpb24tY29sb3I6IGluaXRpYWw7IiBvdmVyZmxvdz0iaGlkZGVuIiB4bWw6c3BhY2U9InByZXNlcnZlIiBoZWlnaHQ9Ijg4LjAwMDAzMDUxNzU3ODEyIiB3aWR0aD0iODguMDAwMDMwNTE3NTc4MTIiIHZpZXdCb3g9IjAgMCA4OC4wMDAwMzA1MTc1NzgxMiA4OC4wMDAwMzA1MTc1NzgxMiI+PGRlZnM+PGltYWdlIGlkPSJpbWcwIiBwcmVzZXJ2ZUFzcGVjdFJhdGlvPSJub25lIiB4bGluazpocmVmPSJkYXRhOmltYWdlL3BuZztiYXNlNjQsaVZCT1J3MEtHZ29BQUFBTlNVaEVVZ0FBQUZnQUFBQllDQVlBQUFCeGxUQTBBQUFBQVhOU1IwSUFyczRjNlFBQUFBUm5RVTFCQUFDeGp3djhZUVVBQUFBSmNFaFpjd0FBRHNNQUFBN0RBY2R2cUdRQUFBNUVTVVJCVkhoZTdad05jQk5sR3NmZmZFQ0J0bEE0SGVST2FKYUNKNGdlSXRCTjRRcENFNHFvZ1BRakJjVHp2UEhHVVR5d2ZMVUoweE01dUJzOXgvTU9GTTg1ZFR3VjJxUkYyZ0tLaWtpNzdTRmY3U1l0SXRpMFNmbnNwaTNmRkxydnphWTBOTSticHB0a053SDFQL09iWWRyZHpmUDgyTDU1OTgxdUVFSUlOU1lPbjl5WXBORTd0TU9tMVUra2ZudVNwaVk2SjhTUGJkVEczM3RDcTRrL01YbkVuWTBQRGVtSEVWSUkyLytjSG1LMTlrWjcyS0h1ZjljbkRVMXdhaWtzQ3BxNjdxU3BacWVXcW5QUW1vTU9yV1pYSTAxOTRxU3BOeHcwbGVOTWpQK2Q4QjkxSWpGKzFFbmQ0R2o0dWorSjFOWDFRUXo3T1dMWUs0aHA2T3YrbVVNYi96ZENab2c0dEJUdnBLbEdKMDE5MVVock5qaVRxT2NhdEpya3VpbnhjYkNtSDAyT0hvMUNqSFVucXJCaU43dXRNWjdmT2VqNE5WQ1NIQWppSFRSVjY2U3BUWTRrYXFFd0JIa1ZlYnRtLy81ZWlHRS85Y2hsV0I3dDN0M0hhNXNHV3BNSGhZUURoMVpUMDBoVGEwNGtEUi92VmREdEVyZmNhb3RIYnFmZy9Id1YzQlE1dFpwbFVFQTRjV2cxUHppMVZIYmRoUGk3WUcyM1pBU0pGZXdXTDdrZFhJT2JldUtnNDVlNngxQWZBc0tGUTB1MU8ybnFuUWI2N2hHd3Zsc21HQ3RSaGZVREgzSUZMc0ROdmVMVVVzOUhXckxBalJyZVBEcHhSSDlZWTBTVGw2ZEVqTzA5SDJJN2g0Z211QXVSQnBwNnhuMG0rV2c4L0dpdU5ORHhjMkdORVVzNSt6WWgxVXV3MVFGMzhaa0diZnpUdDQ1a0NqdG96YjhpZnNIRFdQOUJDSVV3N0hkd3QyN2pUTlJrT21qcUdtdzJVamkwVkJtZU1rVU42d3hMS3RtL0V6Sjl3aDZBdS9xTkk1R2E1OVJxMm1DekVXTnlBbXROVCs4TjY1UTFqSFV0S2JJYkdIWVAzTDNIMUUvVXpIWm9OVmVKWmlPRTY3RnhMTDgwcmVOeVZPNVVzQzhURXYyekRSNUNWT3FGUlNGYWN3VTJHeW11dlREN09KKzlVTjUxRDZZNng0ZEEvekRzaC9Bd291T2txUlFuVFYyR3pVYUNVOU5HWTM1WmhwMWYvbmdzckZPU01Pd1NRcDRvMkRmaG9RSktJejE4a2tPcnVRQWJqZ1R0UzlNRXlRNzhwOW5TTGlReDFzV2tPSkV3MVhud2NBSEhNU21lZHRDUmwzdytLeG5qNVptWVg1NXhsbCthTmdqV0dWVEtiYjkzcnlkQWNXSmhyQy9BUXdhVitnbkR4enUxbWxiWWREZzVrVHpTTGRnamVYSGFuYkRPZ01KWW4wSVYxblpDV2tDd21mQ3dRYWRCTzN5TVU2dHBnWTJIRXo0NzQ2YmtaUm5uK0NWemg4QTZSYVdDTlNDR0RWR3VRTzFVZU9pUWNtTGlzTkUzUHUwZ21nOEgvRXRwSHNFM3p1UUwvSExETDJHZGZsTmhmUnd4N0hWU1ZoQ1VWOThMRHg5eVRvOGJtdURRYXBwZzgrRkFlS1ByS3JoRGN1WkZ2REo5R0t6VFo4clpSOTFMakZCVXNGUld5ck00ZFRJeFh1UFFVbUdYM0w1MEhpSDR4bkRSeG1lblViQk9yNVFmbm9ZWWF4c2hLWGhjOENVa2pYTjh3bEFIclRrTkpjaEpkNEk5a2xlbCtWNVgvbDlWTW1MWXF6NGtoVUNBNnhEQjVQU0UrTHVjV3MwcEtFSXVmQTBSUUhJN3Z5SnpsRmVSWmRWYTZlVzZwMmlidlY1SHJoeFBwQVk3dGRSSktFTU80SnVjTC9obEdUeS93bkNmdTdneTYxaFV3VjRtNUVnQnc2NkJMbVJMQTMzM0lFY1M1U3lmOVREZXZHQVIvbkxPVEh4azZ2MkVvRkRoczlNSm9iNFFKUDk3dy9ySFpKTXJ3RmdYUUEveUJXTkYzS2RYRjhac3g3aVR1SkpyK09YczlmaFk4aWhDVkxEZ1pUZm53VDF4ZllVQngrdzlTSXFSQ3FabUhOUWdVN0FpZWp0djZDcTNLME1LVzNINUkxTUpXWUZ5T3VVK1FtSlBVRitVa1dLazRUcGltUEFzb2ZZdHhYT2dWRWovMG5iODRhSm5DR21CY0g3QkZFSmdUOXo1OVQ0b1JocksyV3JvUVpiMEsrVWZoVEs3STNZN2oxOTd3VWlJRTB2N2t1Nm5hTDQ0dFBaRlVveFVDQitHeXAxK0pYd3FsQ2lHamMrK1JNZ1RnOWczdUU3Rzd2eUNGQ01WbFRXTG9BOUpFMTJNcDBKeFlva3Q1WEZSWmdZaDBCOG5wdHhEQ1BUSGp0ZHlTU2xTOGszTlBkQ0paSWtwNFpPaHRFQVJaaGpzOUhHRXlPNjQrTlIwUW1KM25NOTVFdmZmZTRDVUloVmk3NFVJSnJFN2VDMlVGU3lEaXk3Zytra2pDSm0rRURzOFhGMDVIdy85a2lHbFNBbGozUWk5U0pLK3BmeDRLQ2xVZEJ2S0NKbVF4c2tKaEVoZnRLM0l3bU0rKzRvVUlqWGwxYk9nbTVEVGJ3Yy9Ec3FSaXRLMEp3aXBYYm13YUJvaEUzSmw1WHo4NjExN1NCbVN3MTVHK1ZacDc5T0lMdWJIeEpUeVBCUWpGWU9LcitLR3BBUkNiQ2Q4RDFkdndwaDdoMXp6WFpKM29aK1FFbFBDai9MSUxlRng5RFllOXpOZngzMCtiTU5SNzExeDAvZS9WOTAvRTM0WFU4emptRkpTWWs5a3ZMcU5FQ3R3YXRvb1FtaFhhbDkrSGtlVlYwRUo4bEZlbFF3ZEJaM1lZbjVrVEFuZjN2ZmpOcXg4cFFVclRDN1JLTmUyNEtoM0wzZElGeUU4dHJRZGYrOWp6ZUw2aTNNSnFRTENPc09LRHphUkF1U0VZWTlBUjBHblR3a2YzK2Y5eTIxUVhMQ28vdHFLKzIyNTVsZjJ5TTJOM29LVEtFS3NRSFB1VXpodXozNVNnTnlVVlMrRW5vSktuMDJYaGlsZmFaRk1Ma1M1dmhWSEY3YjdsTTFPZjhnakdMNjVYVnVSaGYvNDBRZGs0K0hoalB0Tzk1Q1RkL291aFltN0JLWElSZSszTG5tSkZsYmVIQjIzcm5yRXRpODM0S0xYVjJNbHc4S213OGZlNmd5b0t2QXNidXF2TUxwYW9ZUndvRnJYZ3FPTGVUemtQN1g0a2RSVU41ZXpNL0grdnl6QnFraUtGV0RZQ3FncXFDaE0zTGV3OFhDaU5IRWV1UUpUcythVHpVYUN5aVArUDYwV0ZlUFpWYkRoOE9NdE9QRzV4V1N6NFlhUlltaklPWHV2d3NUeFpNUGhRL254SjFodG00OTdzVms0MlRBRFQzeDJEaDVvNS9EQWVoZU9xcTRqR3c4SDVWVi9ocXFDaTdGcEoydzRYQ2pmM28zVnRnVllYWlBsUm5Vb0F5T0wzczFBZTVOYmNDZXhSMDlpVkdralJjZ0J3NzRtZk00SVZRVWVveXNaTmgwVzFqaXcrdkRUSHJHZG9LSU91UUxxejVkNENlNGt6czdoS05aT1NwR0kzdFgyRGRMSUZXSnk3U0NhbHhVT0s0dmZkQThIVUs3YW11V1I2em1MNjA0UmdxSHNQdFo2U2M3c1hvZVA0LzUxM0xzb1Q0cjVycEFjYmt4WXg5NDFUcXl1SXMvYVRoU2Z6U0lFSzR2bkUxSzdRNURkLy9nWjNJZTFZOFcrV2tLZ0w1VDdhbkgwa1ViM3ZnUHQzUHZTWEV4MHh1UjZsWkFnRjI5OTR6WFdFdGpJczdlVC9yVUhDWmxpRWNTNXFXdnlwa1BvemUzcU9UUEt4K1JUODBFbkg2c1VKdGM1UW9RTUtBdmZJWVVDVlB2U0NMRWVDbWZpZ2ZhemhEekpzSE5GYVBkdWlSOTROTGJvb1FqcDRiQnExenBDcGkvUTFobWsyQzcwL21vMUtVWUM0dXBkT3hIR0Vzc1ZZdUkya2tLa1JMeGN0YzFBQ1BWRi85b3FRbEJJMkxrOTdpODJraU1LaytzVUtVVTZsRVdiU0pIZG9LeDRncERwazhKSGNGd1Bzd3F4eE5XN3loREc4c2hGT2E0SG9CQXBVVzdjUzBqMEI5cWFTc3JzQmtXeGdiZ0FDWlE0TzNmUS9hMVJzc1hJUFFlbFNNYmFlcXkyTGlRa2Rvdkk0YUVyNmwzTDhNRDZtek9Bd09DcVVBTXY4MDE3SnRkbVFveEVxRXJlSUNYNm8rcm1wWEVnUk8xWjcwT2VmK0xzcmlOREdodjdRUjJTUjJGeU9hRVlTUkRPWGlpd0I1UzdIeWZraWFYM25uV2l6K1M0ZXE1dTBORW1lWjRJOGtwdTA2OElNUktoZlAwUUliQW5VSkgvNlZsUHFEOS9xY2M1Y3B5ZHF4L1VGQTY1UW94Y0toUWpGY3AvVmhJQy9lTG42aTBRbE1WWmVNRDNSd214TitTZUdsRGZNaEJxa0MrbTVtd29SakxXMmttSi9yQUcvZ2JYTFlVemNhOHZWdUVCeHhzOGNnY2NPNDZqeXQ1UGdBcmtqWkY3anhBakZibmNubDYySng5VTI3SjRRcVl2V0FrRmQxS1lpcFhiTXJHeWVJRjczb3pNK2taVU9QMFhVSU44TWJvcUNUR1N3TzFGbTNBdjkydllEUGVwYllZZUphc09wSk9DNU1Dc1A0VStuVFlZcXBBbENoUG5JdVdFaUxHSlFYbmdrdk83ekZGcVc5WjFLTFVyeWtxUlYzQlNJRWkyekFqdXlYelJ5V3NZUk1nSkdlNEF5c08rcjRyWXpBUjFqYUVOaXZVSUxwOUxpcEFWM1JtVW55THVvZkdna3RzOGxoUVVBa2J1SU1yclllSitaQ0dsdGhtdVFybHV3VXk0QmJ2UDVDWlVORU1EeTVRbUp0ZWpoS1RnWVZIMlNYSGZBbVZOSDZhdXlib0lCYXYyelNNRmhBTkJzamxsSkN3ejlLem1udlVoS25DTVhBM0tDM0RpWHJOZ2lNcG11T0FsT01qTFpFa3c2NXRSd1l5TzU1a2xTMjVUSGlFclVJeGNMVnJwR2dBUExTbzFjNGVvYXJKYVBKS2xuQWNIUndzcW1uay9MRFA0aEx6SXpoMURxMXBEbTFQdXo3cERaVE9jZFF1VzZFb3VOSFN0eURKOUFpd3p1SmhjWmxLYVdMaGpLT2RjYU4veTFCbHIyaUJWamVHMElGbXhnL3drT1FKY1FKWVVHcFlaZUl6YzE2UTRNWEIybEhOZTJvbjZvZGx4S3B2QjBmVk9uZ2h6QVpsMUlUNGVZR3l1SnVYMWdKRnpvQlZOZDhORFNSSnJlb3pLYXJDSHVxSW1HV2I5WmJSRnI0Tmxpby9SNVNBRStvVnpvcFdOTWs3TUVVS0hGMGFydmswN1JqUWJLY3k2SzJpTFBoV1dLU29CM1FkaGRKMUVxMXFHdzJQSWtxT3BVWXJ0TTFtaTJZaWh1NHJNK2ptd1RQL0p3MHFGVWZSdFVxZFFYcXQ4RHp2N2lqVzlON0xvcThobUk0UlpmdzJacDgrRFpYYWY1V2RqZllna01YSm5VYzQ1NmIvTlRreDJUMUVqcy81TG90bElJVWd1VE1tQ1pmck9NdUhoRmg5Q3ZlQmN5T1Q2RGR3MXpGR2dncFIxUkxPUndxeHJSeGI5MDdCSU1zWm1paFRxZGVZMkkxUHpnM0MzaU1Xc2Z4Z1Y2SnVJaGlORE83TE0rQU1zMFRzNVRhTUpxUjY1cm5Ob2RWTWkzQ1hpMmZSUUwyVFdyVUFXZlp1UHBzT0xXYzhqaTM0eExQRm1UTTBQRW1JNzVKNUhSdGRrdVBrdGxmeVVBY2lzWCtWZU80Q05oeDNkVWxoZVIzSmJhVkl1ZHhIbG5Ka0NONzFsazUrdVFoYmRYR1RXbHlDTGUyejBJU0FNRktTc2hLV1J6MklZWFpkUkxqY0RibmJiUlBnZzA2SmZnTXk2TGNpaVAwOUlrQnV6SG54Mysrcm02VGNGYzFkUUxqZlRlNFBiT0hsSWlRcFN4cU1DM2ZQSW92c0ltZlUvM0JnelNURlNZdFozK2U3S1hHN0dqV0doRGVXNlpuZXQ3MGVaa2xrRGtWazNDWmwxenlDejdsVmswVzFGWnAwTldYUVhDVkVob1Z2ZjhZSTUzQmdrWFA0YXVYUll5MDh1MjZiY2dRcW1QWUFLZEhwa1Rua1NXZlJMVUlGdUxTclFiVVJtL1NmSW90K09MUG95Wk5aVklZdnVlMVNnTzRFc09oZXk2QzY1cDJ6Q1g4Zk52NUNqOFBBL0o5UUlWNXhiNkw1b2ExSXN5aC90dmwzaC8vYmR4LzJEV3UyM0FBQUFBRWxGVGtTdVFtQ0MiIGhlaWdodD0iMTc1IiB3aWR0aD0iMTc1Ii8+PGNsaXBQYXRoIGlkPSJjbGlwMSI+PHJlY3QgaGVpZ2h0PSI4MzgyMDAiIHdpZHRoPSI4MzgyMDAiIHk9IjAiIHg9IjAiLz48L2NsaXBQYXRoPjwvZGVmcz48Zz48ZyB0cmFuc2Zvcm09InNjYWxlKDAuMDAwMTA0OTg3IDAuMDAwMTA0OTg3KSI+PGcgY2xpcC1wYXRoPSJ1cmwoI2NsaXAxKSI+PHVzZSB0cmFuc2Zvcm09InNjYWxlKDQ3ODkuNzEgNDc4OS43MSkiIHhsaW5rOmhyZWY9IiNpbWcwIiBoZWlnaHQ9IjEwMCUiIHdpZHRoPSIxMDAlIi8+PC9nPjwvZz48L2c+PC9zdmc+;" vertex="1" parent="1">
          <mxGeometry x="125" y="330" width="58" height="58" as="geometry" />
        </mxCell>
        <mxCell id="cZb6ekqzZEfhUIW6tX4D-15" value="Orchestration By Apache Airflow" style="text;html=1;align=center;verticalAlign=middle;resizable=0;points=[];autosize=1;strokeColor=none;fillColor=none;" vertex="1" parent="1">
          <mxGeometry x="190" y="344" width="190" height="30" as="geometry" />
        </mxCell>
      </root>
    </mxGraphModel>
  </diagram>
</mxfile>
